<svg width="30" height="30" viewBox="0 0 30 30" fill="none" xmlns="http://www.w3.org/2000/svg">
<path d="M13.7997 18.8916C13.8571 19.3915 14.3251 19.7637 14.8704 19.7637C14.9075 19.7637 14.9449 19.762 14.9825 19.7585C15.5745 19.7033 16.0049 19.2258 15.9437 18.6919L15.4466 14.3553C15.3854 13.8214 14.8556 13.4339 14.2639 13.4885C13.6718 13.5437 13.2415 14.0212 13.3027 14.5551L13.7997 18.8916Z" fill="#4B5548"/>
<path d="M20.5453 19.7586C20.5829 19.7621 20.6203 19.7638 20.6573 19.7638C21.2028 19.7638 21.6707 19.3916 21.728 18.8917L22.2249 14.5551C22.2862 14.0211 21.8558 13.5436 21.2638 13.4885C20.6713 13.434 20.142 13.8215 20.0808 14.3553L19.5839 18.6919C19.5227 19.2259 19.9531 19.7034 20.5453 19.7586Z" fill="#4B5548"/>
<path d="M12.2012 23.9834C10.3617 23.9834 8.86523 25.3328 8.86523 26.9915C8.86523 28.6506 10.3617 30.0004 12.2012 30.0004C14.0407 30.0004 15.5373 28.6506 15.5373 26.9915C15.5373 25.3328 14.0407 23.9834 12.2012 23.9834ZM12.2012 28.0566C11.5502 28.0566 11.0207 27.5788 11.0207 26.9914C11.0207 26.4044 11.5502 25.9269 12.2012 25.9269C12.8521 25.9269 13.3818 26.4044 13.3818 26.9914C13.3818 27.5788 12.8521 28.0566 12.2012 28.0566Z" fill="#4B5548"/>
<path d="M23.3283 23.9834C21.4888 23.9834 19.9922 25.3328 19.9922 26.9915C19.9922 28.6506 21.4887 30.0004 23.3283 30.0004C25.1679 30.0004 26.6647 28.6506 26.6647 26.9915C26.6647 25.3328 25.1679 23.9834 23.3283 23.9834ZM23.3283 28.0566C22.6773 28.0566 22.1477 27.5788 22.1477 26.9914C22.1477 26.4044 22.6773 25.9269 23.3283 25.9269C23.9794 25.9269 24.5092 26.4044 24.5092 26.9914C24.5092 27.5788 23.9795 28.0566 23.3283 28.0566Z" fill="#4B5548"/>
<path d="M29.7748 10.2474C29.5708 10.0094 29.2559 9.86993 28.9222 9.86993H7.44011L6.53797 6.74183C6.41439 6.31358 5.9856 6.01465 5.49487 6.01465H1.07774C0.482538 6.01465 0 6.44977 0 6.98647C0 7.52318 0.482538 7.95829 1.07774 7.95829H4.66156L5.55637 11.0611C5.56083 11.0785 5.56586 11.0957 5.57132 11.1127L8.89893 22.6509C9.02251 23.0792 9.45131 23.3781 9.94204 23.3781H25.587C26.0777 23.3781 26.5065 23.0792 26.6301 22.6509L29.9653 11.0863C30.0493 10.7954 29.9789 10.4855 29.7748 10.2474ZM24.7537 21.4347H10.7753L8.00068 11.8137H27.5285L24.7537 21.4347Z" fill="#4B5548"/>
<path d="M13.5334 6.84795C13.7438 7.03752 14.0196 7.13237 14.2953 7.13237C14.5712 7.13237 14.8471 7.03739 15.0576 6.84756C15.4784 6.4679 15.4782 5.85255 15.0572 5.47315L11.6678 2.41826C11.2468 2.03886 10.5645 2.03899 10.1436 2.41852C9.72285 2.79818 9.72299 3.41353 10.1439 3.79293L13.5334 6.84795Z" fill="#4B5548"/>
<path d="M21.2378 7.13281C21.5137 7.13281 21.7897 7.03783 22.0002 6.84788L25.3846 3.79337C25.8054 3.41372 25.8049 2.79836 25.3839 2.41909C24.9629 2.03969 24.2804 2.04008 23.8598 2.41974L20.4755 5.47424C20.0547 5.8539 20.0551 6.46925 20.4762 6.84865C20.6866 7.03809 20.9622 7.13281 21.2378 7.13281Z" fill="#4B5548"/>
<path d="M17.7649 6.25996C17.7651 6.25996 17.7651 6.25996 17.7652 6.25996C18.3603 6.25996 18.8428 5.82497 18.843 5.2884L18.8441 0.972081C18.8443 0.435376 18.3619 0.000129576 17.7667 0C17.7665 0 17.7665 0 17.7665 0C17.1713 0 16.6888 0.434988 16.6886 0.971563L16.6875 5.28788C16.6874 5.82458 17.1697 6.25983 17.7649 6.25996Z" fill="#4B5548"/>
</svg>
